<svg width="78" height="129" viewBox="0 0 78 129" fill="none" xmlns="http://www.w3.org/2000/svg">
<path d="M0 128.403V108.123L47.64 86.1628V87.3628L0 65.4028V45.8428H77.88V60.1228H16.32V57.9628L69.36 82.2028V91.4428L16.56 115.563V114.243H77.88V128.403H0ZM77.88 59.52H0V28.08C0 22.08 0.940001 17.1 2.82 13.14C4.66 9.18 7.14 6.22 10.26 4.26001C13.38 2.30001 16.84 1.32001 20.64 1.32001C25.04 1.32001 28.8 2.56001 31.92 5.04C35.04 7.48001 37.24 10.92 38.52 15.36C39.12 12.44 40.22 9.82 41.82 7.5C43.42 5.18 45.44 3.36 47.88 2.04C50.32 0.680001 53.12 0 56.28 0C58.76 0 61.26 0.440002 63.78 1.32001C66.3 2.16 68.64 3.64 70.8 5.76001C72.92 7.84 74.64 10.7 75.96 14.34C77.24 17.94 77.88 22.48 77.88 27.96V59.52ZM65.52 45.36V28.32C65.52 23.8 64.62 20.5 62.82 18.42C60.98 16.3 58.52 15.24 55.44 15.24C52.36 15.24 49.9 16.32 48.06 18.48C46.18 20.64 45.24 23.92 45.24 28.32V45.36H65.52ZM12.24 45.36H32.88V28.68C32.88 24.48 31.96 21.3 30.12 19.14C28.24 16.94 25.68 15.84 22.44 15.84C19.36 15.84 16.9 16.92 15.06 19.08C13.18 21.2 12.24 24.36 12.24 28.56V45.36Z" fill="#E8B91B"/>
</svg>
